<svg id="Layer_1" data-name="Layer 1" xmlns="http://www.w3.org/2000/svg" xmlns:xlink="http://www.w3.org/1999/xlink" viewBox="0 0 1947 1093"><defs><style>.cls-1{fill:#282a36;}.cls-2{fill:#fff;}</style></defs><rect class="cls-1" x="0.5" y="0.5" width="1946" height="1092"/><path d="M1959-6V1085H14V-6H1959m1-1H13V1086H1960V-7Z" transform="translate(-13 7)"/><image width="1200" height="832" transform="translate(762.33 395.96) scale(0.31)" xlink:href="tren.png"/><path class="cls-2" d="M784.07,667.8a1.91,1.91,0,0,0-.51-1.65,2.83,2.83,0,0,0-2-.6,4.79,4.79,0,0,0-1.53.21,2.18,2.18,0,0,0-1,.59,1.7,1.7,0,0,0-.42.86,1.19,1.19,0,0,0,0,.7,1.3,1.3,0,0,0,.44.57,3.28,3.28,0,0,0,.86.45,8.87,8.87,0,0,0,1.29.37l1.7.38a11.71,11.71,0,0,1,2.94,1,5.77,5.77,0,0,1,1.87,1.47,4.61,4.61,0,0,1,.9,1.91,6.34,6.34,0,0,1,0,2.3A7.21,7.21,0,0,1,787,680a8.07,8.07,0,0,1-3.42,2.27,14,14,0,0,1-4.88.78,12.11,12.11,0,0,1-4.81-.85,5.42,5.42,0,0,1-2.85-2.59,7.34,7.34,0,0,1-.44-4.49h5.63a3,3,0,0,0,.21,1.69,2.26,2.26,0,0,0,1.1,1,4.37,4.37,0,0,0,1.89.35A5.32,5.32,0,0,0,781,678a2.63,2.63,0,0,0,1.07-.65,1.73,1.73,0,0,0,.48-1,1.13,1.13,0,0,0-.17-.87,2.17,2.17,0,0,0-.93-.7,9.53,9.53,0,0,0-1.84-.56l-2.09-.47a8.17,8.17,0,0,1-4.19-2.11,4.46,4.46,0,0,1-1-4,7.15,7.15,0,0,1,1.73-3.64,9.28,9.28,0,0,1,3.51-2.43,12.43,12.43,0,0,1,4.74-.87,9.89,9.89,0,0,1,4.42.88,5.44,5.44,0,0,1,2.57,2.48,6.1,6.1,0,0,1,.42,3.75Z" transform="translate(-13 7)"/><path class="cls-2" d="M801.71,675.65l1.54-9.21h5.88L806.4,682.8h-5.58l.51-3.1h-.17a5.59,5.59,0,0,1-2.25,2.44,6.52,6.52,0,0,1-3.33.88,4.93,4.93,0,0,1-2.87-.79,4.26,4.26,0,0,1-1.63-2.17,6.53,6.53,0,0,1-.19-3.18l1.75-10.44h5.88L797,675.65a2.53,2.53,0,0,0,.32,1.9,1.81,1.81,0,0,0,1.6.7,2.81,2.81,0,0,0,1.33-.32,2.78,2.78,0,0,0,1-.89A3.21,3.21,0,0,0,801.71,675.65Z" transform="translate(-13 7)"/><path class="cls-2" d="M808.41,688.94l3.77-22.5H818l-.46,2.86h.12a5.92,5.92,0,0,1,1.18-1.53,5.55,5.55,0,0,1,1.73-1.12,5.62,5.62,0,0,1,2.21-.42,5.27,5.27,0,0,1,2.93.86,5,5,0,0,1,1.92,2.72,10,10,0,0,1,.13,4.81,12.45,12.45,0,0,1-1.66,4.7,8.21,8.21,0,0,1-2.82,2.78,6.69,6.69,0,0,1-3.36.92,4.87,4.87,0,0,1-2-.38,3.52,3.52,0,0,1-1.35-1,3.88,3.88,0,0,1-.71-1.49h-.12l-1.45,8.82Zm8.16-14.32a6,6,0,0,0,0,2.07,2.41,2.41,0,0,0,.67,1.34,1.89,1.89,0,0,0,1.32.47A2.36,2.36,0,0,0,820,678a3.67,3.67,0,0,0,1.09-1.33,7.24,7.24,0,0,0,.66-2.09,6.1,6.1,0,0,0,0-2.08,2.3,2.3,0,0,0-.65-1.33,1.8,1.8,0,0,0-1.3-.46,2.49,2.49,0,0,0-1.47.46,3.54,3.54,0,0,0-1.12,1.33A6.61,6.61,0,0,0,816.57,674.62Z" transform="translate(-13 7)"/><path class="cls-2" d="M828.88,682.8l2.73-16.36h5.71l-.51,3.11H837a5.79,5.79,0,0,1,1.84-2.52,4,4,0,0,1,2.42-.8,4.44,4.44,0,0,1,.74.06c.24,0,.47.09.71.15l-.85,5a4.35,4.35,0,0,0-1-.23c-.41,0-.78-.07-1.09-.07a3.41,3.41,0,0,0-1.6.39,3.62,3.62,0,0,0-1.25,1.09,3.74,3.74,0,0,0-.69,1.63l-1.41,8.52Z" transform="translate(-13 7)"/><path class="cls-2" d="M845.63,683.06a6.2,6.2,0,0,1-2.67-.52,3.26,3.26,0,0,1-1.62-1.57,4.46,4.46,0,0,1-.23-2.68A5.93,5.93,0,0,1,842,676a5.45,5.45,0,0,1,1.54-1.56,7.45,7.45,0,0,1,2.06-.93,11.65,11.65,0,0,1,2.42-.42,21.09,21.09,0,0,0,2.25-.27,3.71,3.71,0,0,0,1.29-.43,1.15,1.15,0,0,0,.51-.75v0a1,1,0,0,0-.34-1,1.83,1.83,0,0,0-1.19-.34,2.75,2.75,0,0,0-1.44.36,1.87,1.87,0,0,0-.82,1.13h-5.41a6.42,6.42,0,0,1,1.4-2.76,7.41,7.41,0,0,1,2.82-2,11.9,11.9,0,0,1,7.28-.35,6.14,6.14,0,0,1,2.19,1.14,4,4,0,0,1,1.23,1.7,4.17,4.17,0,0,1,.16,2.12L856,682.8h-5.5l.38-2.3h-.13a5.62,5.62,0,0,1-1.43,1.48,5.34,5.34,0,0,1-1.72.82A7.21,7.21,0,0,1,845.63,683.06Zm2.55-3.71a3.29,3.29,0,0,0,1.3-.27,3.15,3.15,0,0,0,1.1-.8,2.54,2.54,0,0,0,.59-1.27l.21-1.36a5.3,5.3,0,0,1-.52.17c-.18.06-.38.11-.58.16l-.64.14-.69.12a3.92,3.92,0,0,0-1.18.35,2.05,2.05,0,0,0-.75.59,1.77,1.77,0,0,0-.33.77,1.1,1.1,0,0,0,.32,1A1.71,1.71,0,0,0,848.18,679.35Z" transform="translate(-13 7)"/><path class="cls-2" d="M857.86,688.94l3.77-22.5h5.84L867,669.3h.13a5.88,5.88,0,0,1,1.17-1.53,5.61,5.61,0,0,1,3.94-1.54,5.24,5.24,0,0,1,2.93.86,5,5,0,0,1,1.93,2.72,10.31,10.31,0,0,1,.13,4.81,12.45,12.45,0,0,1-1.67,4.7,8.27,8.27,0,0,1-2.81,2.78,6.76,6.76,0,0,1-3.37.92,4.87,4.87,0,0,1-2-.38,3.52,3.52,0,0,1-1.35-1,3.72,3.72,0,0,1-.7-1.49h-.13l-1.45,8.82ZM866,674.62a6,6,0,0,0,0,2.07,2.47,2.47,0,0,0,.67,1.34,1.89,1.89,0,0,0,1.32.47,2.41,2.41,0,0,0,1.45-.46,3.65,3.65,0,0,0,1.08-1.33,7.24,7.24,0,0,0,.66-2.09,6.39,6.39,0,0,0,0-2.08,2.42,2.42,0,0,0-.65-1.33,1.81,1.81,0,0,0-1.3-.46,2.54,2.54,0,0,0-1.48.46,3.63,3.63,0,0,0-1.12,1.33A6.88,6.88,0,0,0,866,674.62Z" transform="translate(-13 7)"/><path class="cls-2" d="M885.79,673.6l-1.53,9.2h-5.88L882,661h5.67l-1.41,8.56h.17a5.94,5.94,0,0,1,2.24-2.44,6.08,6.08,0,0,1,3.26-.88,4.91,4.91,0,0,1,2.87.79,4.2,4.2,0,0,1,1.63,2.17,6.51,6.51,0,0,1,.19,3.18l-1.75,10.43H889l1.53-9.2a2.53,2.53,0,0,0-.3-1.91,1.86,1.86,0,0,0-1.62-.69,2.73,2.73,0,0,0-1.31.32,2.61,2.61,0,0,0-1,.89A3.5,3.5,0,0,0,885.79,673.6Z" transform="translate(-13 7)"/><path class="cls-2" d="M899.7,688.94a11.35,11.35,0,0,1-1.9-.15,8.84,8.84,0,0,1-1.55-.42l2-4.18a5.82,5.82,0,0,0,1.27.33,2.25,2.25,0,0,0,1-.08,1.46,1.46,0,0,0,.74-.61l.19-.3-2.92-17.09h5.93l.74,11.34h.17L910,666.44h6.39l-8.9,17.73a10.4,10.4,0,0,1-1.7,2.43,7.31,7.31,0,0,1-2.5,1.71A9,9,0,0,1,899.7,688.94Z" transform="translate(-13 7)"/><path class="cls-2" d="M932,671.77h-5.29a1.42,1.42,0,0,0-.18-.88,1.5,1.5,0,0,0-.62-.55,2,2,0,0,0-.9-.19,3.28,3.28,0,0,0-1.59.39,1.38,1.38,0,0,0-.8,1,.5.5,0,0,0,.16.46,2.43,2.43,0,0,0,1.12.4l3.24.59a6.3,6.3,0,0,1,3.54,1.63,3.46,3.46,0,0,1,.8,3.1,5.25,5.25,0,0,1-1.47,2.88,7.71,7.71,0,0,1-3,1.85,12,12,0,0,1-4,.64q-3.85,0-5.79-1.54a4.52,4.52,0,0,1-1.75-4h5.71a1.52,1.52,0,0,0,.54,1.2,2.22,2.22,0,0,0,1.38.42,2.93,2.93,0,0,0,1.64-.38,1.42,1.42,0,0,0,.79-1,.52.52,0,0,0-.3-.53,5.21,5.21,0,0,0-1.28-.36l-2.81-.51a5.83,5.83,0,0,1-3.54-1.75,4,4,0,0,1-.76-3.37,5.05,5.05,0,0,1,1.32-2.73A6.55,6.55,0,0,1,921,666.8a12.52,12.52,0,0,1,4-.57,9,9,0,0,1,5.57,1.47A4.15,4.15,0,0,1,932,671.77Z" transform="translate(-13 7)"/><path class="cls-2" d="M932.92,682.8l2.73-16.36h5.88L938.8,682.8Zm5.92-18.06a2.5,2.5,0,0,1-1.92-.8,2.13,2.13,0,0,1-.55-1.89,3.08,3.08,0,0,1,1.17-1.9,3.43,3.43,0,0,1,2.18-.78,2.49,2.49,0,0,1,1.92.78,2.18,2.18,0,0,1,.53,1.9,3,3,0,0,1-1.15,1.89A3.36,3.36,0,0,1,938.84,664.74Z" transform="translate(-13 7)"/><path class="cls-2" d="M949.62,683.1a8.21,8.21,0,0,1-4.38-1.06,5.59,5.59,0,0,1-2.41-3,8.63,8.63,0,0,1-.28-4.41,10.74,10.74,0,0,1,1.74-4.42,9.09,9.09,0,0,1,3.4-3,10.25,10.25,0,0,1,4.75-1.06,8.18,8.18,0,0,1,4.37,1.06,5.7,5.7,0,0,1,2.42,3,8.67,8.67,0,0,1,.28,4.42,10.63,10.63,0,0,1-1.75,4.41,9.08,9.08,0,0,1-3.4,3A10.21,10.21,0,0,1,949.62,683.1Zm.73-4.34a2.22,2.22,0,0,0,1.4-.5,4.1,4.1,0,0,0,1.09-1.43,8,8,0,0,0,.66-2.21,6.73,6.73,0,0,0,.07-2.21A2.67,2.67,0,0,0,953,671a1.63,1.63,0,0,0-1.24-.5,2.22,2.22,0,0,0-1.4.5,3.94,3.94,0,0,0-1.09,1.42,8,8,0,0,0-.66,2.21,7,7,0,0,0-.07,2.21,2.63,2.63,0,0,0,.62,1.43A1.63,1.63,0,0,0,950.35,678.76Z" transform="translate(-13 7)"/><path class="cls-2" d="M970,661l-3.62,21.81h-5.89L964.16,661Z" transform="translate(-13 7)"/><path class="cls-2" d="M977.24,683.1a8.23,8.23,0,0,1-4.39-1.06,5.64,5.64,0,0,1-2.41-3,8.75,8.75,0,0,1-.28-4.41,10.74,10.74,0,0,1,1.74-4.42,9.09,9.09,0,0,1,3.4-3,10.25,10.25,0,0,1,4.75-1.06,8.15,8.15,0,0,1,4.37,1.06,5.65,5.65,0,0,1,2.42,3,8.56,8.56,0,0,1,.28,4.42,10.62,10.62,0,0,1-1.74,4.41,9.18,9.18,0,0,1-3.41,3A10.2,10.2,0,0,1,977.24,683.1Zm.72-4.34a2.22,2.22,0,0,0,1.4-.5,4,4,0,0,0,1.09-1.43,8.35,8.35,0,0,0,.67-2.21,7,7,0,0,0,.06-2.21,2.67,2.67,0,0,0-.62-1.42,1.61,1.61,0,0,0-1.23-.5,2.25,2.25,0,0,0-1.41.5,3.94,3.94,0,0,0-1.09,1.42,8.36,8.36,0,0,0-.66,2.21,7.32,7.32,0,0,0-.07,2.21,2.7,2.7,0,0,0,.62,1.43A1.65,1.65,0,0,0,978,678.76Z" transform="translate(-13 7)"/><path class="cls-2" d="M995,689.28a10.43,10.43,0,0,1-4.11-.7,5.12,5.12,0,0,1-2.41-1.91,4.44,4.44,0,0,1-.64-2.8h5.67a1.24,1.24,0,0,0,.31.85,1.51,1.51,0,0,0,.79.46,4.71,4.71,0,0,0,1.2.14,3.54,3.54,0,0,0,2-.56,2.68,2.68,0,0,0,1-2l.47-2.77h-.17a4.3,4.3,0,0,1-1.2,1.41,5.51,5.51,0,0,1-1.74.89,7.09,7.09,0,0,1-2.09.3,5.77,5.77,0,0,1-3.07-.81,4.6,4.6,0,0,1-1.92-2.57,9.79,9.79,0,0,1-.12-4.59,12.15,12.15,0,0,1,1.73-4.81,8,8,0,0,1,2.84-2.72,6.83,6.83,0,0,1,3.23-.86,4.54,4.54,0,0,1,2.05.42,3.55,3.55,0,0,1,1.35,1.12,4.24,4.24,0,0,1,.69,1.53h.13l.47-2.86h5.88l-2.73,16.32a6.64,6.64,0,0,1-1.63,3.54,8.31,8.31,0,0,1-3.36,2.22A13.28,13.28,0,0,1,995,689.28Zm2-10.86a2.49,2.49,0,0,0,1.47-.46,3.61,3.61,0,0,0,1.12-1.3,6.53,6.53,0,0,0,.65-2,6.33,6.33,0,0,0,0-2.08,2.44,2.44,0,0,0-.67-1.33,1.85,1.85,0,0,0-1.31-.46,2.44,2.44,0,0,0-1.46.46,3.59,3.59,0,0,0-1.1,1.33,6.88,6.88,0,0,0-.64,2.08,6,6,0,0,0,0,2.07,2.15,2.15,0,0,0,.65,1.28A1.85,1.85,0,0,0,997,678.42Z" transform="translate(-13 7)"/><path class="cls-2" d="M1007.62,682.8l2.73-16.36h5.88l-2.73,16.36Zm5.92-18.06a2.5,2.5,0,0,1-1.92-.8,2.13,2.13,0,0,1-.55-1.89,3,3,0,0,1,1.18-1.9,3.38,3.38,0,0,1,2.17-.78,2.49,2.49,0,0,1,1.92.78,2.18,2.18,0,0,1,.53,1.9,3,3,0,0,1-1.15,1.89A3.36,3.36,0,0,1,1013.54,664.74Z" transform="translate(-13 7)"/><path class="cls-2" d="M1024.33,683.1a8.23,8.23,0,0,1-4.39-1.06,5.61,5.61,0,0,1-2.42-3,8.64,8.64,0,0,1-.27-4.41,10.59,10.59,0,0,1,1.73-4.42,9.19,9.19,0,0,1,3.41-3,10.28,10.28,0,0,1,4.75-1.06,8.42,8.42,0,0,1,4,.87,5,5,0,0,1,2.31,2.45,6.44,6.44,0,0,1,.36,3.71h-5.46a2.82,2.82,0,0,0-.41-2,1.7,1.7,0,0,0-1.46-.68,2.52,2.52,0,0,0-1.44.44,3.56,3.56,0,0,0-1.12,1.33,7.25,7.25,0,0,0-.68,2.23,6.85,6.85,0,0,0,0,2.24,2.3,2.3,0,0,0,.66,1.33,1.84,1.84,0,0,0,1.26.44,2.51,2.51,0,0,0,1.22-.3,2.86,2.86,0,0,0,1-.9A4.22,4.22,0,0,0,1028,676h5.45a8.69,8.69,0,0,1-1.63,3.77,8.1,8.1,0,0,1-3.12,2.47A10.26,10.26,0,0,1,1024.33,683.1Z" transform="translate(-13 7)"/><path class="cls-2" d="M1039.2,683.06a6.2,6.2,0,0,1-2.67-.52,3.26,3.26,0,0,1-1.62-1.57,4.46,4.46,0,0,1-.23-2.68,5.93,5.93,0,0,1,.84-2.29,5.45,5.45,0,0,1,1.54-1.56,7.45,7.45,0,0,1,2.06-.93,11.65,11.65,0,0,1,2.42-.42,21.09,21.09,0,0,0,2.25-.27,3.71,3.71,0,0,0,1.29-.43,1.15,1.15,0,0,0,.51-.75v0a1,1,0,0,0-.34-1,1.83,1.83,0,0,0-1.19-.34,2.75,2.75,0,0,0-1.44.36,1.87,1.87,0,0,0-.82,1.13h-5.42a6.55,6.55,0,0,1,1.41-2.76,7.41,7.41,0,0,1,2.82-2,11.9,11.9,0,0,1,7.28-.35,6.14,6.14,0,0,1,2.19,1.14,3.93,3.93,0,0,1,1.22,1.7,4.06,4.06,0,0,1,.17,2.12l-1.88,11.2h-5.49l.38-2.3h-.13a5.62,5.62,0,0,1-1.43,1.48,5.34,5.34,0,0,1-1.72.82A7.21,7.21,0,0,1,1039.2,683.06Zm2.55-3.71a3.29,3.29,0,0,0,1.3-.27,3.15,3.15,0,0,0,1.1-.8,2.54,2.54,0,0,0,.59-1.27l.21-1.36a5.3,5.3,0,0,1-.52.17c-.18.06-.38.11-.58.16l-.64.14-.69.12a3.92,3.92,0,0,0-1.18.35,2.05,2.05,0,0,0-.75.59,1.77,1.77,0,0,0-.33.77,1.1,1.1,0,0,0,.32,1A1.71,1.71,0,0,0,1041.75,679.35Z" transform="translate(-13 7)"/><path class="cls-2" d="M1061.91,661l-3.62,21.81h-5.88L1056,661Z" transform="translate(-13 7)"/><path class="cls-2" d="M1074.1,689.28a10.43,10.43,0,0,1-4.11-.7,5.12,5.12,0,0,1-2.41-1.91,4.44,4.44,0,0,1-.64-2.8h5.67a1.29,1.29,0,0,0,.3.85,1.59,1.59,0,0,0,.8.46,4.71,4.71,0,0,0,1.2.14,3.54,3.54,0,0,0,2-.56,2.68,2.68,0,0,0,1-2l.47-2.77h-.17a4.3,4.3,0,0,1-1.2,1.41,5.51,5.51,0,0,1-1.74.89,7.09,7.09,0,0,1-2.09.3,5.77,5.77,0,0,1-3.07-.81,4.51,4.51,0,0,1-1.92-2.57,9.79,9.79,0,0,1-.12-4.59,12.3,12.3,0,0,1,1.72-4.81,8.14,8.14,0,0,1,2.85-2.72,6.83,6.83,0,0,1,3.23-.86,4.54,4.54,0,0,1,2,.42,3.63,3.63,0,0,1,1.35,1.12,4.24,4.24,0,0,1,.69,1.53h.13l.46-2.86h5.89l-2.73,16.32a6.71,6.71,0,0,1-1.63,3.54,8.31,8.31,0,0,1-3.36,2.22A13.28,13.28,0,0,1,1074.1,689.28Zm2-10.86a2.49,2.49,0,0,0,1.47-.46,3.61,3.61,0,0,0,1.12-1.3,6.53,6.53,0,0,0,.65-2,6.33,6.33,0,0,0,0-2.08,2.44,2.44,0,0,0-.67-1.33,1.86,1.86,0,0,0-1.32-.46,2.43,2.43,0,0,0-1.45.46,3.59,3.59,0,0,0-1.1,1.33,6.88,6.88,0,0,0-.64,2.08,6,6,0,0,0,0,2.07,2.15,2.15,0,0,0,.65,1.28A1.84,1.84,0,0,0,1076.06,678.42Z" transform="translate(-13 7)"/><path class="cls-2" d="M1091.23,683.06a6.2,6.2,0,0,1-2.67-.52,3.26,3.26,0,0,1-1.62-1.57,4.46,4.46,0,0,1-.23-2.68,5.93,5.93,0,0,1,.84-2.29,5.33,5.33,0,0,1,1.54-1.56,7.45,7.45,0,0,1,2.06-.93,11.65,11.65,0,0,1,2.42-.42,21.09,21.09,0,0,0,2.25-.27,3.71,3.71,0,0,0,1.29-.43,1.15,1.15,0,0,0,.51-.75v0a1,1,0,0,0-.34-1,1.84,1.84,0,0,0-1.2-.34,2.74,2.74,0,0,0-1.43.36,1.87,1.87,0,0,0-.82,1.13h-5.41a6.42,6.42,0,0,1,1.4-2.76,7.41,7.41,0,0,1,2.82-2,11.9,11.9,0,0,1,7.28-.35,6.14,6.14,0,0,1,2.19,1.14,3.93,3.93,0,0,1,1.22,1.7,4.06,4.06,0,0,1,.17,2.12l-1.88,11.2h-5.49l.38-2.3h-.13A5.62,5.62,0,0,1,1095,682a5.3,5.3,0,0,1-1.73.82A7.09,7.09,0,0,1,1091.23,683.06Zm2.55-3.71a3.29,3.29,0,0,0,1.3-.27,3.15,3.15,0,0,0,1.1-.8,2.54,2.54,0,0,0,.59-1.27l.21-1.36a5.3,5.3,0,0,1-.52.17c-.18.06-.38.11-.58.16l-.64.14-.69.12a3.92,3.92,0,0,0-1.18.35,2.05,2.05,0,0,0-.75.59,1.66,1.66,0,0,0-.33.77,1.1,1.1,0,0,0,.32,1A1.71,1.71,0,0,0,1093.78,679.35Z" transform="translate(-13 7)"/><path class="cls-2" d="M1104.44,682.8l2.72-16.36H1113l-2.72,16.36Zm5.92-18.06a2.52,2.52,0,0,1-1.93-.8,2.1,2.1,0,0,1-.54-1.89,3.08,3.08,0,0,1,1.17-1.9,3.4,3.4,0,0,1,2.17-.78,2.46,2.46,0,0,1,1.92.78,2.15,2.15,0,0,1,.53,1.9,3,3,0,0,1-1.14,1.89A3.38,3.38,0,0,1,1110.36,664.74Z" transform="translate(-13 7)"/><path class="cls-2" d="M1120.76,673.6l-1.54,9.2h-5.88l2.73-16.36h5.58l-.51,3.11h.17a5.72,5.72,0,0,1,2.28-2.44,6.35,6.35,0,0,1,3.3-.88,5,5,0,0,1,2.89.79,4.2,4.2,0,0,1,1.63,2.17,6.29,6.29,0,0,1,.17,3.18l-1.75,10.43H1124l1.54-9.2a2.53,2.53,0,0,0-.29-1.91,1.89,1.89,0,0,0-1.63-.69,2.69,2.69,0,0,0-1.3.32,2.54,2.54,0,0,0-1,.89A3.51,3.51,0,0,0,1120.76,673.6Z" transform="translate(-13 7)"/><path class="cls-2" d="M1149.44,671.77h-5.29a1.42,1.42,0,0,0-.18-.88,1.5,1.5,0,0,0-.62-.55,2,2,0,0,0-.9-.19,3.28,3.28,0,0,0-1.59.39,1.38,1.38,0,0,0-.8,1,.5.5,0,0,0,.16.46,2.43,2.43,0,0,0,1.12.4l3.24.59a6.3,6.3,0,0,1,3.54,1.63,3.49,3.49,0,0,1,.81,3.1,5.39,5.39,0,0,1-1.47,2.88,7.83,7.83,0,0,1-3,1.85,11.92,11.92,0,0,1-4,.64q-3.87,0-5.79-1.54a4.5,4.5,0,0,1-1.76-4h5.71a1.52,1.52,0,0,0,.54,1.2,2.27,2.27,0,0,0,1.38.42,2.93,2.93,0,0,0,1.64-.38,1.42,1.42,0,0,0,.79-1,.52.52,0,0,0-.3-.53,5.21,5.21,0,0,0-1.28-.36l-2.81-.51a5.83,5.83,0,0,1-3.54-1.75,4,4,0,0,1-.76-3.37,5.05,5.05,0,0,1,1.32-2.73,6.55,6.55,0,0,1,2.77-1.68,12.52,12.52,0,0,1,4-.57,9,9,0,0,1,5.57,1.47A4.15,4.15,0,0,1,1149.44,671.77Z" transform="translate(-13 7)"/></svg>